<?xml version="1.0" encoding="iso-8859-1"?>
<!-- Generator: Adobe Illustrator 19.0.0, SVG Export Plug-In . SVG Version: 6.00 Build 0)  -->
<svg version="1.1" id="Layer_1" xmlns="http://www.w3.org/2000/svg" xmlns:xlink="http://www.w3.org/1999/xlink" x="0px" y="0px"
	 viewBox="0 0 464.253 464.253" style="enable-background:new 0 0 464.253 464.253;" xml:space="preserve">
<g transform="translate(0 -1020.36)" shape-rendering="auto" image-rendering="auto" color-rendering="auto" color-interpolation="sRGB">
	<path style="fill:#5A3392;" d="M53.882,1020.477v7.968v87.999l161.5,0.16v-19.5h20v19.531h24v-19.531h20v19.563h10.25h0.128h0.128
		c15.939-0.176,30.493,8.045,38.5,21.75c8.016,13.725,7.951,30.387,0,44.156c-7.955,13.773-22.395,22.055-38.25,21.969h-0.128
		l-115.75,0.191c-50.143-0.176-96.616,26.67-121.656,70.031c-25.092,43.451-24.848,97.209,0.469,140.531
		c25.287,43.291,71.891,69.729,122,69.313h226.875v-95.875H279.385v17.721h-20v-17.721h-24v17.721h-20v-17.721h-40.781h-0.219
		h-0.128c-15.939,0.176-30.355-8.111-38.375-21.844c-8.031-13.748-8.066-30.445-0.128-44.188
		c7.948-13.766,22.554-22.182,38.375-22.094h0.128l115.406-0.191c50.219,0.24,96.909-26.361,122-69.813
		c25.095-43.457,24.82-97.33-0.499-140.656c-25.293-43.303-72.016-69.856-122.125-69.437H53.882L53.882,1020.477z"/>
	<path style="fill:#EE746C;" d="M69.935,1036.362l219.094,0.16h0.122c44.427-0.416,85.893,23.037,108.307,61.41
		c22.412,38.367,22.454,86.115,0.242,124.59c-22.211,38.463-63.571,62.109-108.071,61.883l-115.393,0.16h-0.122
		c-21.564-0.16-41.531,11.426-52.323,30.115c-10.794,18.691-10.506,41.637,0.363,60.227c10.845,18.566,30.667,29.811,52.205,29.643
		h0.242h211.299v63.889H175.073h-0.122c-44.427,0.416-85.769-23.027-108.189-61.41c-22.415-38.375-22.457-85.873-0.242-124.355
		c22.184-38.414,63.319-62.17,107.717-62l115.748-0.16h0.122c21.531,0.16,41.419-11.32,52.205-29.996
		c10.779-18.668,10.639-41.611-0.242-60.229c-10.859-18.59-30.784-29.93-52.323-29.76h-0.122H69.939v-64.126L69.935,1036.362z"/>
	<path style="fill:#FB9761;" d="M74.822,1042.851v57.593l214.844,0.16h0.128c21.538-0.176,41.453,11.066,52.312,29.656
		c10.878,18.617,10.901,41.582,0.128,60.252c-6.763,11.713-17.107,20.545-29.188,25.5c-7.614,3.529-15.97,5.518-24.656,5.469h-0.128
		l-112.281,0.16c-43.065-0.16-82.95,22.863-104.469,60.125c-21.541,37.326-21.524,83.402,0.219,120.625
		c21.748,37.232,61.875,59.986,104.969,59.563h0.128h204.5v-57.404H174.641h-0.25c-21.58,0.207-41.449-11.029-52.312-29.625
		c-10.866-18.592-11.037-41.559-0.25-60.25c6.869-11.896,17.464-20.838,29.812-25.783c7.508-3.41,15.701-5.33,24.219-5.279h0.128
		l111.937-0.16c43.165,0.225,83.268-22.721,104.813-60.031c21.538-37.322,21.52-83.627-0.219-120.844
		c-21.743-37.223-61.968-60.018-105.062-59.594h-0.128l-212.5-0.16L74.822,1042.851z"/>
	<g>
		<path style="fill:#FFFFFF;" d="M131.94,1060.424v16.063h160.276c30.266-0.004,58.266,15.549,73.464,41.576
			c15.211,26.049,15.307,58.207,0.242,84.33c-15.082,26.127-43.068,42.215-73.228,42.049l-115.63,0.16
			c-35.85-0.176-69.008,18.918-86.929,49.961c-17.94,31.076-17.871,69.408,0.242,100.395c18.096,30.986,51.406,49.934,87.283,49.605
			l188.268-0.16v-15.943H177.541c-30.172,0.305-58.135-15.527-73.346-41.574c-15.221-26.049-15.317-58.207-0.242-84.332
			c15.082-26.125,42.95-42.213,73.11-42.049l115.63-0.16c35.893,0.176,69.109-18.889,87.048-49.961
			c17.927-31.076,17.858-69.408-0.242-100.395c-18.107-31.008-51.497-49.611-87.283-49.605H131.939L131.94,1060.424z"/>
		<g>
			<path style="fill:#FFFFFF;" d="M85.877,1028.417v79.961h16.063v-79.962L85.877,1028.417L85.877,1028.417z"/>
			<path style="fill:#FFFFFF;" d="M121.546,1028.417v79.961h15.945v-79.962L121.546,1028.417L121.546,1028.417z"/>
			<path style="fill:#FFFFFF;" d="M93.876,1044.417v16h28v-16H93.876z"/>
			<path style="fill:#FFFFFF;" d="M93.876,1076.417v16h28v-16H93.876z"/>
			<path style="fill:#FFFFFF;" d="M65.876,1060.417v16h28v-16H65.876z"/>
		</g>
	</g>
	<path style="fill:#5A3392;" d="M53.882,1020.415v8.03v87.999h161.5v-16.029H69.944v-64.128l219.093,0.176h0.122
		c44.427-0.432,85.867,23.032,108.281,61.405c22.412,38.367,22.462,86.119,0.242,124.596
		c-22.211,38.463-63.563,62.102-108.062,61.873l-115.407,0.176h-0.122c-21.564-0.176-41.52,11.436-52.312,30.125
		c-10.794,18.691-10.494,41.627,0.363,60.217c10.845,18.566,30.649,29.826,52.187,29.658h0.242h40.781v-15.938h-40.781h-0.242
		h-0.122c-15.939,0.176-30.355-8.113-38.375-21.846c-8.031-13.748-8.058-30.445-0.121-44.188
		c7.949-13.766,22.554-22.184,38.375-22.094h0.122l115.406-0.176c50.219,0.24,96.909-26.363,122-69.814
		c25.095-43.455,24.852-97.328-0.484-140.654c-25.294-43.304-72.016-69.857-122.125-69.438H53.849L53.882,1020.415z
		 M235.382,1100.477v16.031h24v-16.063h-24V1100.477z M279.381,1100.477v16.063h10.25h0.122h0.122
		c15.939-0.176,30.494,8.043,38.5,21.748c8.016,13.725,7.951,30.387,0,44.156c-7.955,13.773-22.395,22.057-38.25,21.969h-0.122
		l-115.75,0.176c-50.142-0.176-96.616,26.668-121.656,70.031c-25.092,43.453-24.818,97.209,0.484,140.531
		c25.288,43.291,71.891,69.73,122,69.314h226.875v-95.875H279.393v15.938h106.531v63.873H175.081h-0.122
		c-44.427,0.416-85.767-23.021-108.188-61.404c-22.415-38.375-22.465-85.863-0.242-124.344c22.184-38.416,63.322-62.172,107.719-62
		l115.75-0.176h0.122c21.531,0.176,41.434-11.322,52.219-30c10.779-18.668,10.631-41.6-0.242-60.219
		c-10.859-18.59-30.774-29.951-52.313-29.781h-0.122h-10.25H279.381z M235.382,1388.54v15.938h24v-15.938H235.382z"/>
</g>
<g>
</g>
<g>
</g>
<g>
</g>
<g>
</g>
<g>
</g>
<g>
</g>
<g>
</g>
<g>
</g>
<g>
</g>
<g>
</g>
<g>
</g>
<g>
</g>
<g>
</g>
<g>
</g>
<g>
</g>
</svg>
